<mxfile modified="2022-11-18T07:07:22.878Z" host="app.diagrams.net" agent="5.0 (Windows NT 10.0; WOW64) AppleWebKit/537.36 (KHTML, like Gecko) Chrome/96.0.4664.93 Safari/537.36" etag="niNGLAxD1oGTYwLvMrZE" version="20.4.1" type="github">
  <diagram id="C2fSY1v2SiZeoUbDoYyL" name="Page-1">
    <mxGraphModel dx="2591" dy="730" grid="1" gridSize="10" guides="1" tooltips="1" connect="1" arrows="1" fold="1" page="1" pageScale="1" pageWidth="1169" pageHeight="827" math="0" shadow="0">
      <root>
        <mxCell id="0" />
        <mxCell id="1" parent="0" />
        <mxCell id="3ne1QswCM8ZiEu4GHsYG-31" value="Company Goods Delivery Procedure" style="text;html=1;strokeColor=none;fillColor=none;align=center;verticalAlign=middle;whiteSpace=wrap;rounded=0;fontStyle=1;fontSize=20;fontColor=#4D4D4D;" parent="1" vertex="1">
          <mxGeometry x="189.5" y="50" width="790" height="30" as="geometry" />
        </mxCell>
        <mxCell id="3ne1QswCM8ZiEu4GHsYG-32" value="" style="line;strokeWidth=2;html=1;fontSize=20;fontColor=#4D4D4D;" parent="1" vertex="1">
          <mxGeometry x="103.5" y="80" width="960" height="10" as="geometry" />
        </mxCell>
        <mxCell id="XYQatNw1aIijDcf5BP1H-2" value="" style="endArrow=none;html=1;rounded=0;exitX=0.5;exitY=1;exitDx=0;exitDy=0;entryX=0.5;entryY=0;entryDx=0;entryDy=0;" edge="1" parent="1" source="XYQatNw1aIijDcf5BP1H-14" target="XYQatNw1aIijDcf5BP1H-9">
          <mxGeometry width="50" height="50" relative="1" as="geometry">
            <mxPoint x="240" y="550" as="sourcePoint" />
            <mxPoint x="400" y="600" as="targetPoint" />
            <Array as="points" />
          </mxGeometry>
        </mxCell>
        <mxCell id="XYQatNw1aIijDcf5BP1H-3" value="历史监事" style="edgeLabel;html=1;align=center;verticalAlign=middle;resizable=0;points=[];" vertex="1" connectable="0" parent="XYQatNw1aIijDcf5BP1H-2">
          <mxGeometry x="0.0857" y="2" relative="1" as="geometry">
            <mxPoint as="offset" />
          </mxGeometry>
        </mxCell>
        <mxCell id="XYQatNw1aIijDcf5BP1H-5" value="" style="endArrow=none;html=1;rounded=0;exitX=0.5;exitY=1;exitDx=0;exitDy=0;entryX=0.5;entryY=0;entryDx=0;entryDy=0;" edge="1" parent="1" source="XYQatNw1aIijDcf5BP1H-13" target="XYQatNw1aIijDcf5BP1H-8">
          <mxGeometry width="50" height="50" relative="1" as="geometry">
            <mxPoint x="80" y="560" as="sourcePoint" />
            <mxPoint x="80.84999999999991" y="670" as="targetPoint" />
            <Array as="points" />
          </mxGeometry>
        </mxCell>
        <mxCell id="XYQatNw1aIijDcf5BP1H-6" value="法人" style="edgeLabel;html=1;align=center;verticalAlign=middle;resizable=0;points=[];" vertex="1" connectable="0" parent="XYQatNw1aIijDcf5BP1H-5">
          <mxGeometry x="0.0857" y="2" relative="1" as="geometry">
            <mxPoint as="offset" />
          </mxGeometry>
        </mxCell>
        <mxCell id="XYQatNw1aIijDcf5BP1H-8" value="陈坚" style="ellipse;whiteSpace=wrap;html=1;aspect=fixed;" vertex="1" parent="1">
          <mxGeometry x="-58" y="690" width="80" height="80" as="geometry" />
        </mxCell>
        <mxCell id="XYQatNw1aIijDcf5BP1H-9" value="周慧" style="ellipse;whiteSpace=wrap;html=1;aspect=fixed;" vertex="1" parent="1">
          <mxGeometry x="373.5" y="680" width="80" height="80" as="geometry" />
        </mxCell>
        <mxCell id="XYQatNw1aIijDcf5BP1H-10" value="" style="endArrow=none;html=1;rounded=0;exitX=0.5;exitY=0;exitDx=0;exitDy=0;entryX=0.5;entryY=1;entryDx=0;entryDy=0;" edge="1" parent="1" source="XYQatNw1aIijDcf5BP1H-9" target="XYQatNw1aIijDcf5BP1H-15">
          <mxGeometry width="50" height="50" relative="1" as="geometry">
            <mxPoint x="425" y="640" as="sourcePoint" />
            <mxPoint x="585" y="690" as="targetPoint" />
            <Array as="points" />
          </mxGeometry>
        </mxCell>
        <mxCell id="XYQatNw1aIijDcf5BP1H-11" value="&lt;span style=&quot;color: rgb(51, 51, 51); font-family: &amp;quot;Microsoft YaHei&amp;quot;, Arial; font-size: 14px;&quot;&gt;法人&lt;/span&gt;" style="edgeLabel;html=1;align=center;verticalAlign=middle;resizable=0;points=[];" vertex="1" connectable="0" parent="XYQatNw1aIijDcf5BP1H-10">
          <mxGeometry x="0.0857" y="2" relative="1" as="geometry">
            <mxPoint x="-13" y="12" as="offset" />
          </mxGeometry>
        </mxCell>
        <mxCell id="XYQatNw1aIijDcf5BP1H-12" value="周怡" style="ellipse;whiteSpace=wrap;html=1;aspect=fixed;" vertex="1" parent="1">
          <mxGeometry x="640" y="680" width="80" height="80" as="geometry" />
        </mxCell>
        <mxCell id="XYQatNw1aIijDcf5BP1H-13" value="开发有限公司" style="rounded=1;whiteSpace=wrap;html=1;fillColor=#f8cecc;strokeColor=#b85450;" vertex="1" parent="1">
          <mxGeometry x="22" y="490" width="120" height="60" as="geometry" />
        </mxCell>
        <mxCell id="XYQatNw1aIijDcf5BP1H-14" value="经营管理有限公司" style="rounded=1;whiteSpace=wrap;html=1;fillColor=#f8cecc;strokeColor=#b85450;" vertex="1" parent="1">
          <mxGeometry x="240" y="490" width="120" height="60" as="geometry" />
        </mxCell>
        <mxCell id="XYQatNw1aIijDcf5BP1H-15" value="上海芃凯贸易有限公司" style="rounded=1;whiteSpace=wrap;html=1;" vertex="1" parent="1">
          <mxGeometry x="480" y="490" width="130" height="60" as="geometry" />
        </mxCell>
        <mxCell id="XYQatNw1aIijDcf5BP1H-16" value="" style="endArrow=none;html=1;rounded=0;exitX=0.5;exitY=0;exitDx=0;exitDy=0;entryX=0.5;entryY=1;entryDx=0;entryDy=0;" edge="1" parent="1" source="XYQatNw1aIijDcf5BP1H-12" target="XYQatNw1aIijDcf5BP1H-15">
          <mxGeometry width="50" height="50" relative="1" as="geometry">
            <mxPoint x="466.5" y="660" as="sourcePoint" />
            <mxPoint x="630" y="700" as="targetPoint" />
            <Array as="points" />
          </mxGeometry>
        </mxCell>
        <mxCell id="XYQatNw1aIijDcf5BP1H-17" value="&lt;font face=&quot;Microsoft YaHei, Arial&quot; color=&quot;#333333&quot;&gt;&lt;span style=&quot;font-size: 14px;&quot;&gt;监事&lt;/span&gt;&lt;/font&gt;" style="edgeLabel;html=1;align=center;verticalAlign=middle;resizable=0;points=[];" vertex="1" connectable="0" parent="XYQatNw1aIijDcf5BP1H-16">
          <mxGeometry x="0.0857" y="2" relative="1" as="geometry">
            <mxPoint as="offset" />
          </mxGeometry>
        </mxCell>
        <mxCell id="XYQatNw1aIijDcf5BP1H-18" value="" style="endArrow=none;html=1;rounded=0;exitX=0.5;exitY=1;exitDx=0;exitDy=0;entryX=0.288;entryY=1;entryDx=0;entryDy=0;entryPerimeter=0;" edge="1" parent="1" source="XYQatNw1aIijDcf5BP1H-8" target="XYQatNw1aIijDcf5BP1H-12">
          <mxGeometry width="50" height="50" relative="1" as="geometry">
            <mxPoint x="258" y="850" as="sourcePoint" />
            <mxPoint x="258" y="970" as="targetPoint" />
            <Array as="points">
              <mxPoint x="390" y="880" />
            </Array>
          </mxGeometry>
        </mxCell>
        <mxCell id="XYQatNw1aIijDcf5BP1H-19" value="需要证明夫妻关系？&amp;nbsp;&lt;br&gt;或者其他关系？" style="edgeLabel;html=1;align=center;verticalAlign=middle;resizable=0;points=[];" vertex="1" connectable="0" parent="XYQatNw1aIijDcf5BP1H-18">
          <mxGeometry x="0.0857" y="2" relative="1" as="geometry">
            <mxPoint as="offset" />
          </mxGeometry>
        </mxCell>
        <mxCell id="XYQatNw1aIijDcf5BP1H-21" value="徐金荣" style="ellipse;whiteSpace=wrap;html=1;aspect=fixed;" vertex="1" parent="1">
          <mxGeometry x="160" y="680" width="80" height="80" as="geometry" />
        </mxCell>
        <mxCell id="XYQatNw1aIijDcf5BP1H-24" value="" style="endArrow=none;html=1;rounded=0;exitX=0.5;exitY=1;exitDx=0;exitDy=0;entryX=0.5;entryY=0;entryDx=0;entryDy=0;" edge="1" parent="1" source="XYQatNw1aIijDcf5BP1H-14" target="XYQatNw1aIijDcf5BP1H-21">
          <mxGeometry width="50" height="50" relative="1" as="geometry">
            <mxPoint x="300" y="560" as="sourcePoint" />
            <mxPoint x="422.5" y="690" as="targetPoint" />
            <Array as="points" />
          </mxGeometry>
        </mxCell>
        <mxCell id="XYQatNw1aIijDcf5BP1H-25" value="历史监事" style="edgeLabel;html=1;align=center;verticalAlign=middle;resizable=0;points=[];" vertex="1" connectable="0" parent="XYQatNw1aIijDcf5BP1H-24">
          <mxGeometry x="0.0857" y="2" relative="1" as="geometry">
            <mxPoint as="offset" />
          </mxGeometry>
        </mxCell>
        <mxCell id="XYQatNw1aIijDcf5BP1H-26" value="" style="endArrow=none;html=1;rounded=0;exitX=0.5;exitY=1;exitDx=0;exitDy=0;entryX=0.5;entryY=0;entryDx=0;entryDy=0;" edge="1" parent="1" source="XYQatNw1aIijDcf5BP1H-13" target="XYQatNw1aIijDcf5BP1H-21">
          <mxGeometry width="50" height="50" relative="1" as="geometry">
            <mxPoint x="300" y="560" as="sourcePoint" />
            <mxPoint x="230" y="690" as="targetPoint" />
            <Array as="points" />
          </mxGeometry>
        </mxCell>
        <mxCell id="XYQatNw1aIijDcf5BP1H-27" value="历史监事" style="edgeLabel;html=1;align=center;verticalAlign=middle;resizable=0;points=[];" vertex="1" connectable="0" parent="XYQatNw1aIijDcf5BP1H-26">
          <mxGeometry x="0.0857" y="2" relative="1" as="geometry">
            <mxPoint as="offset" />
          </mxGeometry>
        </mxCell>
        <mxCell id="XYQatNw1aIijDcf5BP1H-28" value="海南香都进出口贸易有限责任公司" style="rounded=1;whiteSpace=wrap;html=1;" vertex="1" parent="1">
          <mxGeometry x="-230" y="490" width="120" height="60" as="geometry" />
        </mxCell>
        <mxCell id="XYQatNw1aIijDcf5BP1H-29" value="" style="endArrow=none;html=1;rounded=0;exitX=0.5;exitY=1;exitDx=0;exitDy=0;entryX=0.5;entryY=0;entryDx=0;entryDy=0;" edge="1" parent="1" source="XYQatNw1aIijDcf5BP1H-28" target="XYQatNw1aIijDcf5BP1H-8">
          <mxGeometry width="50" height="50" relative="1" as="geometry">
            <mxPoint x="-80" y="550" as="sourcePoint" />
            <mxPoint x="-180" y="690" as="targetPoint" />
            <Array as="points" />
          </mxGeometry>
        </mxCell>
        <mxCell id="XYQatNw1aIijDcf5BP1H-30" value="法人" style="edgeLabel;html=1;align=center;verticalAlign=middle;resizable=0;points=[];" vertex="1" connectable="0" parent="XYQatNw1aIijDcf5BP1H-29">
          <mxGeometry x="0.0857" y="2" relative="1" as="geometry">
            <mxPoint as="offset" />
          </mxGeometry>
        </mxCell>
        <mxCell id="XYQatNw1aIijDcf5BP1H-31" value="" style="endArrow=none;html=1;rounded=0;exitX=0.5;exitY=0;exitDx=0;exitDy=0;entryX=0.5;entryY=0;entryDx=0;entryDy=0;" edge="1" parent="1" source="XYQatNw1aIijDcf5BP1H-28" target="XYQatNw1aIijDcf5BP1H-9">
          <mxGeometry width="50" height="50" relative="1" as="geometry">
            <mxPoint x="-170" y="550" as="sourcePoint" />
            <mxPoint x="-270" y="680" as="targetPoint" />
            <Array as="points">
              <mxPoint y="360" />
              <mxPoint x="414" y="360" />
            </Array>
          </mxGeometry>
        </mxCell>
        <mxCell id="XYQatNw1aIijDcf5BP1H-32" value="监事" style="edgeLabel;html=1;align=center;verticalAlign=middle;resizable=0;points=[];" vertex="1" connectable="0" parent="XYQatNw1aIijDcf5BP1H-31">
          <mxGeometry x="0.0857" y="2" relative="1" as="geometry">
            <mxPoint as="offset" />
          </mxGeometry>
        </mxCell>
      </root>
    </mxGraphModel>
  </diagram>
</mxfile>
